<svg xmlns="http://www.w3.org/2000/svg" xmlns:xlink="http://www.w3.org/1999/xlink" width="525.906" height="524.106" viewBox="0 0 525.906 524.106">
  <defs>
    <clipPath id="clip-path">
      <path id="path2362" d="M-60.979-1037.717H464.926v524.105H-60.979Z" transform="translate(60.979 1037.717)"/>
    </clipPath>
    <clipPath id="clip-path-54">
      <path id="path963" d="M0-300H500V200H0Z" transform="translate(0 300.002)"/>
    </clipPath>
  </defs>
  <g id="logo" transform="translate(35.338 -128.276)">
    <g id="title">
      <text id="DIÓ" transform="translate(71 397)" fill="#785c51" font-size="48" font-family="PerpetuaTitlingMT-Light, Perpetua Titling MT" font-weight="300" letter-spacing="0.114em"><tspan x="0" y="0">DIÓ</tspan></text>
      <text id="LEVÉL" transform="translate(236 397)" fill="#785c51" font-size="48" font-family="PerpetuaTitlingMT-Light, Perpetua Titling MT" font-weight="300" letter-spacing="0.114em"><tspan x="0" y="0">LEVÉL</tspan></text>
    </g>
    <g id="leaf" transform="translate(285.666 433.094)">
      <g id="g49" transform="translate(-321.004 -304.817)" clip-path="url(#clip-path)">
        <path id="path51" d="M-15.355-10.575a1.408,1.408,0,0,1,.064.9c-.223.745-1.154,1.041-1.919,1.273a7.891,7.891,0,0,1-2.864.3,14.847,14.847,0,0,1-3.644-.846,26.3,26.3,0,0,1-4.163-1.475c-1.347-.8-1.982-1.616-3.881-2.389-.521-.212-.515-.168-.907-.348a8.652,8.652,0,0,1-3.1-2.541,16.489,16.489,0,0,1-2.4-3.936c-.994-2.282-.709-2.973-1.836-4.464-.494-.653-1.213-1.4-1.052-1.6.111-.141.484.171,1.14.179.748.009.981-.388,2.123-.831.811-.314.837-.17,1.725-.482a17.411,17.411,0,0,0,2.011-.985c1.067-.454,2.068-.34,4.071-.114a11.009,11.009,0,0,1,3.175.772,9.863,9.863,0,0,1,.955.475l.416.63.849.492,2.436,1.1,2.205,1.476,1.482,2.029.349.671,2.506,3.756.477,5.388Z" transform="translate(252.628 257.466)" fill="none" stroke="#a47343" stroke-miterlimit="10" stroke-width="0.988"/>
      </g>
      <g id="g53" transform="translate(-321.004 -304.817)" clip-path="url(#clip-path)">
        <path id="path55" d="M0,0C2.234.839,4.039,1.64,5.314,2.238c2.445,1.147,4.368,2.238,8.213,4.421,1.878,1.066,2.839,1.613,3.911,2.308,1.731,1.122,3.058,2.124,4.766,3.419,1.4,1.057,2.577,1.994,3.5,2.739" transform="translate(211.57 231.765)" fill="none" stroke="#a47343" stroke-miterlimit="10" stroke-width="0.988"/>
      </g>
      <g id="g57" transform="translate(-321.004 -304.817)" clip-path="url(#clip-path)">
        <path id="path59" d="M0,0A5.632,5.632,0,0,1,1.641,1.331a7.025,7.025,0,0,1,.942,1.534,9.4,9.4,0,0,1,.41.989,32.552,32.552,0,0,0,1.44,3.31" transform="translate(218.162 229.844)" fill="none" stroke="#a47343" stroke-miterlimit="10" stroke-width="0.988"/>
      </g>
      <g id="g61" transform="translate(-321.004 -304.817)" clip-path="url(#clip-path)">
        <path id="path63" d="M-3.178,0A14.664,14.664,0,0,0-4.89.537a9.583,9.583,0,0,1-1.968.718A3.84,3.84,0,0,1-8.5,1.133" transform="translate(222.382 235.152)" fill="none" stroke="#a47343" stroke-miterlimit="10" stroke-width="0.988"/>
      </g>
      <g id="g65" transform="translate(-321.004 -304.817)" clip-path="url(#clip-path)">
        <path id="path67" d="M0,0A7.483,7.483,0,0,1,.826,2.594,15.654,15.654,0,0,1,.759,5.3a12.7,12.7,0,0,0,.433,3.618" transform="translate(227.185 231.41)" fill="none" stroke="#a47343" stroke-miterlimit="10" stroke-width="0.988"/>
      </g>
      <g id="g69" transform="translate(-321.004 -304.817)" clip-path="url(#clip-path)">
        <path id="path71" d="M-5.044,0A6.805,6.805,0,0,0-6.38.675c-1.087.711-1.223,1.255-2.29,2.1a5.032,5.032,0,0,1-2.2,1.2,4.19,4.19,0,0,1-2.626-.4" transform="translate(230.985 238.904)" fill="none" stroke="#a47343" stroke-miterlimit="10" stroke-width="0.988"/>
      </g>
      <g id="g73" transform="translate(-321.004 -304.817)" clip-path="url(#clip-path)">
        <path id="path75" d="M0,0C.429.831.746,1.528.964,2.031a4.353,4.353,0,0,1,.36.981c.1.587-.051.879-.407,2.246C.733,5.966.609,6.524.45,7.239c-.121.542-.213.99-.273,1.292" transform="translate(229.143 232.404)" fill="none" stroke="#a47343" stroke-miterlimit="10" stroke-width="0.988"/>
      </g>
      <g id="g77" transform="translate(-321.004 -304.817)" clip-path="url(#clip-path)">
        <path id="path79" d="M-4.729,0A17.758,17.758,0,0,1-7.138,1.686c-.94.546-.823.359-2.574,1.29a6.676,6.676,0,0,1-1.275.57,5.793,5.793,0,0,1-1.665.255" transform="translate(236.226 242.448)" fill="none" stroke="#a47343" stroke-miterlimit="10" stroke-width="0.988"/>
      </g>
      <g id="g81" transform="translate(-321.004 -304.817)" clip-path="url(#clip-path)">
        <path id="path83" d="M-3.649,0A8.087,8.087,0,0,0-5.327.772,16.5,16.5,0,0,0-7.088,2.138,7.662,7.662,0,0,1-9.763,3.412" transform="translate(238.673 245.108)" fill="none" stroke="#a47343" stroke-miterlimit="10" stroke-width="0.988"/>
      </g>
      <g id="g85" transform="translate(-321.004 -304.817)" clip-path="url(#clip-path)">
        <path id="path87" d="M-15.5-7.652a3.421,3.421,0,0,1-1.132,1.944,3.19,3.19,0,0,1-1.3.823,8.388,8.388,0,0,1-2.724-.154,9.014,9.014,0,0,1-1-.158c-.758-.2-.96-.438-1.51-.442-.438,0-.4.147-.924.2a6.616,6.616,0,0,1-1.743-.273,7.858,7.858,0,0,0-1.295-.067,11.146,11.146,0,0,1-3.654-.779c-1.739-.706-1.854-1.455-4.8-3.082-.311-.171-.568-.306-.729-.388l-.48-.007L-38.092-11.2l-.866-.82-.5-.08c-.223-.447-.453-.577-.625-.611-.243-.047-.372.1-.769.084-.048,0-.567-.017-.621-.2s.351-.388.725-.673c1.053-.8.776-1.316,1.689-1.994.711-.528,1.089-.375,1.526-.958a3.965,3.965,0,0,0,.432-.993,3.467,3.467,0,0,1,2.134-1.548,19.644,19.644,0,0,1,5.12-1.318c.749-.055,5.445-.355,9,1.755a13.227,13.227,0,0,1,2.235,1.72,6.071,6.071,0,0,1,1.574,1.993,5.083,5.083,0,0,1,.364,1.392c.2,1.418-.234,1.943.2,2.839.211.432.318.327.588.846A3.366,3.366,0,0,1-15.5-7.652Z" transform="translate(252.831 270.766)" fill="none" stroke="#a47343" stroke-miterlimit="10" stroke-width="0.988"/>
      </g>
      <g id="g89" transform="translate(-321.004 -304.817)" clip-path="url(#clip-path)">
        <path id="path91" d="M-15.469-3.736c-.6-.3-1.56-.78-2.735-1.387-3.736-1.932-4.14-2.289-5.878-3.011a22.907,22.907,0,0,0-4.85-1.48,21.921,21.921,0,0,0-2.735-.293,25.561,25.561,0,0,0-4.494.185,31.167,31.167,0,0,0-5.225,1.076" transform="translate(253.018 266.748)" fill="none" stroke="#a47343" stroke-miterlimit="10" stroke-width="0.988"/>
      </g>
      <g id="g93" transform="translate(-321.004 -304.817)" clip-path="url(#clip-path)">
        <path id="path95" d="M-12.52-7.327c-.422-.518,1.708-3.459,3.252-3.99a1.164,1.164,0,0,0,.511-.324,1.675,1.675,0,0,0-.091-2.078,1.465,1.465,0,0,0-.69-.372c-1.384-.42-1.28-1.154-3.479-2.326-2.641-1.407-2.1-1.362-3.151-1.8-.842-.346-1.007-.3-6.357-1.067a8.79,8.79,0,0,0-3-.129,8.585,8.585,0,0,0-2.779,1.07,12.294,12.294,0,0,0-2.881,2.149,5.054,5.054,0,0,0-1.477,1.959c-.259.76-.033.965-.348,2.2a9.2,9.2,0,0,0-.476,1.705,4.092,4.092,0,0,0,.329,1.831,3.82,3.82,0,0,0,1.412,1.933c.968.613,1.359,0,2.649.622.858.415,1.213.942,1.926.85.363-.047.481-.211.811-.353.9-.385,1.709.126,2.814.443a14.665,14.665,0,0,0,4.519.094,6.517,6.517,0,0,0,2.4-.377A9.175,9.175,0,0,1-15-6.049a6.828,6.828,0,0,1,1.4-.19c1.672-.116,2.031.189,2.962-.119.228-.075,1.107-.365,1.165-.894a.566.566,0,0,0-.1-.386C-10.07-8.259-12.165-6.891-12.52-7.327Z" transform="translate(274.446 273.856)" fill="none" stroke="#a47343" stroke-miterlimit="10" stroke-width="0.988"/>
      </g>
      <g id="g97" transform="translate(-321.004 -304.817)" clip-path="url(#clip-path)">
        <path id="path99" d="M-13.09-1.245a1.949,1.949,0,0,0-.638-.846c-.646-.468-1.194-.032-2.4-.342-1.464-.375-2-.891-4.068-.879-1.495.009-1.754.282-4.593.374-1.392.046-1.408-.018-2.275.054-.951.078-4.108.772-4.532.862a16.2,16.2,0,0,1-3.422.353" transform="translate(275.978 265.204)" fill="none" stroke="#a47343" stroke-miterlimit="10" stroke-width="0.988"/>
      </g>
      <g id="g101" transform="translate(-321.004 -304.817)" clip-path="url(#clip-path)">
        <path id="path103" d="M0,0A13.209,13.209,0,0,1,2.259,2.092,13.377,13.377,0,0,1,4.882,6.924" transform="translate(221.344 250.721)" fill="none" stroke="#a47343" stroke-miterlimit="10" stroke-width="0.988"/>
      </g>
      <g id="g105" transform="translate(-321.004 -304.817)" clip-path="url(#clip-path)">
        <path id="path107" d="M-3.175,0A6.79,6.79,0,0,1-5.15,2.5,6.861,6.861,0,0,1-8.5,3.888" transform="translate(224.527 256.841)" fill="none" stroke="#a47343" stroke-miterlimit="10" stroke-width="0.988"/>
      </g>
      <g id="g109" transform="translate(-321.004 -304.817)" clip-path="url(#clip-path)">
        <path id="path111" d="M-3.217,0c-.685,1.106-1.3,2.047-1.8,2.8a9.584,9.584,0,0,1-1.92,2.368,6.906,6.906,0,0,1-1.67,1" transform="translate(230.65 258.037)" fill="none" stroke="#a47343" stroke-miterlimit="10" stroke-width="0.988"/>
      </g>
      <g id="g113" transform="translate(-321.004 -304.817)" clip-path="url(#clip-path)">
        <path id="path115" d="M-3.712,0C-4.7.519-5.77,1.04-6.91,1.547c-1.043.465-2.053.876-3.022,1.241" transform="translate(240.083 262.421)" fill="none" stroke="#a47343" stroke-miterlimit="10" stroke-width="0.988"/>
      </g>
      <g id="g117" transform="translate(-321.004 -304.817)" clip-path="url(#clip-path)">
        <path id="path119" d="M-.3,0A4.14,4.14,0,0,1,.473,2.738,8.05,8.05,0,0,1-.114,4.494,13.966,13.966,0,0,0-.8,7.33" transform="translate(233.936 253.415)" fill="none" stroke="#a47343" stroke-miterlimit="10" stroke-width="0.988"/>
      </g>
      <g id="g121" transform="translate(-321.004 -304.817)" clip-path="url(#clip-path)">
        <path id="path123" d="M0,0A5.808,5.808,0,0,1,1.43,1.849a15.958,15.958,0,0,1,.62,1.945A4.838,4.838,0,0,0,4.641,6.286" transform="translate(246.687 262.673)" fill="none" stroke="#a47343" stroke-miterlimit="10" stroke-width="0.988"/>
      </g>
      <g id="g125" transform="translate(-321.004 -304.817)" clip-path="url(#clip-path)">
        <path id="path127" d="M-2.958,0A19.734,19.734,0,0,0-5,1.832,6.447,6.447,0,0,0-6.154,3.293a6.858,6.858,0,0,0-.555,1.556,10.689,10.689,0,0,1-1.2,2.617" transform="translate(256.825 254.852)" fill="none" stroke="#a47343" stroke-miterlimit="10" stroke-width="0.988"/>
      </g>
      <g id="g129" transform="translate(-321.004 -304.817)" clip-path="url(#clip-path)">
        <path id="path131" d="M-2.73,0A5.206,5.206,0,0,0-4.778,1.219,6.3,6.3,0,0,0-6,3.081,20.107,20.107,0,0,0-7.3,6.44" transform="translate(261.009 255.644)" fill="none" stroke="#a47343" stroke-miterlimit="10" stroke-width="0.988"/>
      </g>
      <g id="g133" transform="translate(-321.004 -304.817)" clip-path="url(#clip-path)">
        <path id="path135" d="M0,0A35.74,35.74,0,0,0,2.465,3.091,35.934,35.934,0,0,0,5.071,5.725" transform="translate(255.78 261.892)" fill="none" stroke="#a47343" stroke-miterlimit="10" stroke-width="0.988"/>
      </g>
      <g id="g137" transform="translate(-321.004 -304.817)" clip-path="url(#clip-path)">
        <path id="path139" d="M-3.508-.126a4.926,4.926,0,0,0-3.178.117,4.983,4.983,0,0,0-2.7,2.641" transform="translate(268.417 259.891)" fill="none" stroke="#a47343" stroke-miterlimit="10" stroke-width="0.988"/>
      </g>
      <g id="g141" transform="translate(-321.004 -304.817)" clip-path="url(#clip-path)">
        <path id="path143" d="M-9.515-2.878c-.1-.29-.2-.306-.318-.6a2.769,2.769,0,0,1,.015-1.4c.036-1.241-2.255-2.253-2.447-2.335A6.65,6.65,0,0,0-16.1-7.506,6.362,6.362,0,0,0-19.95-5.954c-.552.559-.26.582-1.8,2.9A10.965,10.965,0,0,0-22.766-1.4c-.47,1.027-.347,1.351-.775,1.864A4.25,4.25,0,0,1-25.456,1.5a12.83,12.83,0,0,0,2.335-.215,3.584,3.584,0,0,1,1.87.122,2.749,2.749,0,0,1,.6.334l.6-.35c.721.066,1.294.158,1.681.23.879.162,1.314.309,1.641.052.154-.121.2-.266.531-.532a2.053,2.053,0,0,1,.46-.3c.3-.129.519-.072,1.1,0a8.734,8.734,0,0,0,1.462.093c.65-.026.816-.14.891-.2.23-.191.2-.386.447-.649a1.773,1.773,0,0,1,.716-.4,3.226,3.226,0,0,0,1.49-1.17A1.809,1.809,0,0,0-9.515-2.878Z" transform="translate(244.718 276.817)" fill="none" stroke="#a47343" stroke-miterlimit="10" stroke-width="0.988"/>
      </g>
      <g id="g145" transform="translate(-321.004 -304.817)" clip-path="url(#clip-path)">
        <path id="path147" d="M-8.88,0a13.763,13.763,0,0,1-1.538.169c-1.364.075-1.767-.107-2.733-.086A13.71,13.71,0,0,0-16.5.857a15.5,15.5,0,0,0-2.691.946c-1.069.545-1.328.915-2.507,1.523a12.623,12.623,0,0,1-2.057.841" transform="translate(244.083 273.939)" fill="none" stroke="#a47343" stroke-miterlimit="10" stroke-width="0.988"/>
      </g>
      <g id="g149" transform="translate(-321.004 -304.817)" clip-path="url(#clip-path)">
        <path id="path151" d="M-1.252-.689c.743-1.09,2.485-1.124,3.471-1.143a5.1,5.1,0,0,1,2.208.375,4.374,4.374,0,0,1,1.2.809l.7.025L7.794.828a13.959,13.959,0,0,1,1.57,4.58,3.613,3.613,0,0,1,.011,1.646C8.919,8.569,7.39,8.546,6.987,9.924c-.161.552.109.468.254,2.7a13.463,13.463,0,0,1,.024,1.98,1.456,1.456,0,0,0-.2-1.147c-.255-.3-.545-.141-1.3-.426a4.477,4.477,0,0,1-1.154-.666,6.923,6.923,0,0,1-1.011-1C2.175,9.779,2.081,9.579,2.017,9.405c-.28-.756.023-.913-.293-1.433-.243-.4-.529-.483-1.875-1.189a16.99,16.99,0,0,1-1.538-.856C-2.66,5.261-3.2,4.888-3.326,4.307-3.544,3.281-2.191,2.864-1.611.762c.244-.884.062-1.017.359-1.451Z" transform="translate(242.63 274.647)" fill="none" stroke="#a47343" stroke-miterlimit="10" stroke-width="0.988"/>
      </g>
      <g id="g153" transform="translate(-321.004 -304.817)" clip-path="url(#clip-path)">
        <path id="path155" d="M-5.117-7.922A19.5,19.5,0,0,0-6.33-11.887a16.733,16.733,0,0,0-1.835-3.34A27.88,27.88,0,0,0-11.2-18.517c-1.12-1.142-2-2.049-2.493-2.556" transform="translate(254.815 296.022)" fill="none" stroke="#a47343" stroke-miterlimit="10" stroke-width="0.988"/>
      </g>
      <g id="g157" transform="translate(-321.004 -304.817)" clip-path="url(#clip-path)">
        <path id="path159" d="M-3.082,0A13.72,13.72,0,0,1-4.71.962c-.361.18-.7.328-1.2.625-.394.236-.51.346-.861.577a10.928,10.928,0,0,1-1.477.81" transform="translate(251.342 274)" fill="none" stroke="#a47343" stroke-miterlimit="10" stroke-width="0.988"/>
      </g>
      <g id="g161" transform="translate(-321.004 -304.817)" clip-path="url(#clip-path)">
        <path id="path163" d="M-2.231,0A5.058,5.058,0,0,1-3.418,2.022a5.134,5.134,0,0,1-2.55,1.43" transform="translate(235.25 274.126)" fill="none" stroke="#a47343" stroke-miterlimit="10" stroke-width="0.988"/>
      </g>
      <g id="g165" transform="translate(-321.004 -304.817)" clip-path="url(#clip-path)">
        <path id="path167" d="M-6.992-23.416c.295,0,.626-.279,1.289-.833a5.656,5.656,0,0,0,1.095-1.107,9.286,9.286,0,0,0,.489-.857A9.992,9.992,0,0,1-2.7-27.8c.53-.61.325-.585,1.147-1.751.884-1.254,1.035-1.163,1.316-1.822.21-.5.177-.671.572-1.671.108-.274.218-.55.386-.921a6.53,6.53,0,0,0,.581-1.3,9.929,9.929,0,0,0,.007-1.184c.015-.438.046-.568.079-1.016.045-.615.036-1.05.032-1.557-.027-2.8.081-2.531,0-3.111-.179-1.222-.471-1.143-.887-3.125a6.171,6.171,0,0,0-.3-1.346A2.938,2.938,0,0,0-.962-47.839a8.457,8.457,0,0,0-1.751-.588,4.13,4.13,0,0,1-1.559-.632,2.934,2.934,0,0,1-.483-.465A3.413,3.413,0,0,1-5.782-50.5c-1.32-1.965.353-4.332-1-6.053A3.785,3.785,0,0,0-8.1-57.608c-.668-.289-.878-.086-1.5-.406a2.916,2.916,0,0,1-1.32-1.323c-.217-.484-.1-.687-.4-1.006a3.613,3.613,0,0,0-.8-.658c-1.149-.739-1.531-1.38-1.672-1.282-.183.127.667,1.066.891,2.72a5.731,5.731,0,0,1-.443,2.851c-.378.763-.678.531-1.39,1.554a7.109,7.109,0,0,0-1.033,2.323c-.232.891-.068.906-.294,1.968a12.73,12.73,0,0,1-.858,2.556c-.682,1.6-.689,1.425-.968,2.153a10.208,10.208,0,0,0-.823,4.077,17.891,17.891,0,0,0,.357,2.224c.156.82.394,2.067.694,3.637l.418.295.406,1.58,1.851,3.873a4.633,4.633,0,0,0,1.641,1.864c.551.344,1,.426,1.414.982.309.411.271.638.636,1.067a4.019,4.019,0,0,0,1.07.788,19.343,19.343,0,0,1,1.9,1.411C-7.477-23.656-7.361-23.415-6.992-23.416Z" transform="translate(249.9 262.862)" fill="none" stroke="#a47343" stroke-miterlimit="10" stroke-width="0.988"/>
      </g>
      <g id="g169" transform="translate(-321.004 -304.817)" clip-path="url(#clip-path)">
        <path id="path171" d="M0,0A10.889,10.889,0,0,0,.878,2.211a7.056,7.056,0,0,0,1.054,1.6A6.642,6.642,0,0,0,4.821,5.435c1.56.577,2.01.46,3.419,1.072a12.36,12.36,0,0,1,1.735.924" transform="translate(231.563 218.036)" fill="none" stroke="#a47343" stroke-miterlimit="10" stroke-width="0.988"/>
      </g>
      <g id="g173" transform="translate(-321.004 -304.817)" clip-path="url(#clip-path)">
        <path id="path175" d="M-5.306,0a3.294,3.294,0,0,1-.455,1.913c-.324.514-.69.717-1.8,1.393A29.61,29.61,0,0,0-10.5,5.2,23.606,23.606,0,0,1-12.363,7c-.094.07-.6.441-1.268.908-.237.165-.433.3-.564.389" transform="translate(256.282 219.477)" fill="none" stroke="#a47343" stroke-miterlimit="10" stroke-width="0.988"/>
      </g>
      <g id="g177" transform="translate(-321.004 -304.817)" clip-path="url(#clip-path)">
        <path id="path179" d="M-1.892,0A22.549,22.549,0,0,1-3.64,2.858c-.687.956-1.469,1.888-1.419,1.93a8.4,8.4,0,0,1,1.5-1.256c.766-.454.969-.309,1.68-.715A4.927,4.927,0,0,0-.084,1.086" transform="translate(246.01 212.36)" fill="none" stroke="#a47343" stroke-miterlimit="10" stroke-width="0.988"/>
      </g>
      <g id="g181" transform="translate(-321.004 -304.817)" clip-path="url(#clip-path)">
        <path id="path183" d="M0,0C.563.813,1.209,1.74,1.93,2.763A16.424,16.424,0,0,0,3.049,4.225a14.3,14.3,0,0,0,1.39,1.389A20.827,20.827,0,0,1,7.5,9.193" transform="translate(233.846 211.997)" fill="none" stroke="#a47343" stroke-miterlimit="10" stroke-width="0.988"/>
      </g>
      <g id="g185" transform="translate(-321.004 -304.817)" clip-path="url(#clip-path)">
        <path id="path187" d="M0,0A6.7,6.7,0,0,0,1.027,1.291a7.147,7.147,0,0,0,3.6,1.855" transform="translate(233.201 214.045)" fill="none" stroke="#a47343" stroke-miterlimit="10" stroke-width="0.988"/>
      </g>
      <g id="g189" transform="translate(-321.004 -304.817)" clip-path="url(#clip-path)">
        <path id="path191" d="M0,0A3.449,3.449,0,0,0,.618,1.778c.647.887,1.469.977,2.689,1.833a8.77,8.77,0,0,1,1.83,1.737" transform="translate(235.172 207.705)" fill="none" stroke="#a47343" stroke-miterlimit="10" stroke-width="0.988"/>
      </g>
      <g id="g193" transform="translate(-321.004 -304.817)" clip-path="url(#clip-path)">
        <path id="path195" d="M-5.147,0A11.712,11.712,0,0,1-6.891,1.731a10.6,10.6,0,0,1-3.282,1.9c-1.26.432-1.947.357-2.758,1.077a3.7,3.7,0,0,0-.839,1.1" transform="translate(256.355 226.854)" fill="none" stroke="#a47343" stroke-miterlimit="10" stroke-width="0.988"/>
      </g>
      <g id="g197" transform="translate(-321.004 -304.817)" clip-path="url(#clip-path)">
        <path id="path199" d="M0,0A8.913,8.913,0,0,0,1.113.548a10.982,10.982,0,0,0,2.866.679A10.078,10.078,0,0,1,7.524,2.535" transform="translate(235.158 232.802)" fill="none" stroke="#a47343" stroke-miterlimit="10" stroke-width="0.988"/>
      </g>
      <g id="g201" transform="translate(-321.004 -304.817)" clip-path="url(#clip-path)">
        <path id="path203" d="M-.735,0C-.758.513-.79,1.275-.821,2.2-.875,3.86-.871,4.368-.9,4.84A12.406,12.406,0,0,1-1.967,9.151" transform="translate(242.537 205.254)" fill="none" stroke="#a47343" stroke-miterlimit="10" stroke-width="0.988"/>
      </g>
      <g id="g205" transform="translate(-321.004 -304.817)" clip-path="url(#clip-path)">
        <path id="path207" d="M0,0C3.919,12.748,4.641,25.4,5.337,38.986" transform="translate(237.468 201.295)" fill="none" stroke="#a47343" stroke-miterlimit="10" stroke-width="0.988"/>
      </g>
      <g id="g209" transform="translate(-321.004 -304.817)" clip-path="url(#clip-path)">
        <path id="path211" d="M-11.977,0c-1.446,10.171-3.015,19.042-4.443,26.349-2.84,14.531-4.718,20.8-9.053,27.353a49.864,49.864,0,0,1-6.57,7.977" transform="translate(254.952 239.435)" fill="none" stroke="#a47343" stroke-miterlimit="10" stroke-width="0.988"/>
      </g>
      <g id="g213" transform="translate(-321.004 -304.817)" clip-path="url(#clip-path)">
        <path id="path215" d="M-1.108-2.762a2.127,2.127,0,0,0,.9-.084A2.639,2.639,0,0,0,.982-3.681c.54-.6,1.273-1.417,1.057-2.268C1.8-6.91.456-7.461-.631-7.327A2.569,2.569,0,0,0-2.963-5.12,2.371,2.371,0,0,0-1.108-2.762" transform="translate(216.698 223.001)" fill="#a47343"/>
      </g>
      <g id="g217" transform="translate(-321.004 -304.817)" clip-path="url(#clip-path)">
        <path id="path219" d="M-2.4-6.278c.515-.23.616-1.884.651-2.462a.6.6,0,0,1,.139-.406c.191-.2.5-.116,1.224-.073.675.04,1.04.059,1.1-.086.052-.117-.126-.272-.387-.566-.513-.58-1.056-1.193-.958-1.678.024-.12.072-.153.682-.7.888-.79,1.092-.99,1.062-1.223a.623.623,0,0,0-.4-.446c-.811-.312-1.878,1.228-2.294.972-.173-.107-.071-.425-.038-1.177.032-.711.1-2.327-.459-2.555-.29-.117-.7.155-.893.391-.14.168-.22.373-.288,1.183-.09,1.09,0,1.4-.2,1.515-.112.063-.47-.065-1.182-.327-.374-.136-.5-.192-.674-.152a.769.769,0,0,0-.6.665c.017.328.443.389,1.178,1.135.348.353.413.5.418.65,0,.112-.025.336-.531.793-.741.671-1.144.609-1.415,1.1-.184.338-.231.794-.057.924.126.093.321-.018,1.093-.37.928-.423,1.11-.475,1.259-.393s.178.245.263.957c.16,1.347.148,1.652.4,1.943.208.239.623.5.893.377" transform="translate(263.967 223.879)" fill="#a47343"/>
      </g>
      <g id="g221" transform="translate(-321.004 -304.817)" clip-path="url(#clip-path)">
        <path id="path223" d="M-.07-1.305c.419-.451,2.174.021,2.788.186a.666.666,0,0,0,.471,0c.27-.129.294-.473.5-1.24.194-.711.3-1.095.475-1.111.14-.012.239.226.454.6.424.733.872,1.506,1.41,1.575.134.017.185-.02.962-.462C8.125-2.4,8.4-2.545,8.636-2.432a.679.679,0,0,1,.325.568C9-.918,7.029-.354,7.15.165c.051.216.417.222,1.21.449.751.216,2.456.7,2.5,1.366.021.341-.4.665-.719.786-.224.086-.464.1-1.33-.115C7.643,2.364,7.35,2.164,7.162,2.33c-.105.094-.1.509-.073,1.335.012.434.027.581-.077.749a.843.843,0,0,1-.9.386c-.336-.133-.25-.594-.769-1.613-.246-.483-.378-.6-.53-.658C4.7,2.486,4.454,2.437,3.8,2.8c-.957.532-1.032.969-1.643,1.077-.415.072-.907-.038-.98-.264-.053-.161.13-.325.766-1,.764-.81.881-.981.848-1.162s-.192-.27-.9-.606C.546.207.224.113.01-.251c-.176-.3-.3-.817-.08-1.054" transform="translate(204.998 285.63)" fill="#a47343"/>
      </g>
      <g id="g225" transform="translate(-321.004 -304.817)" clip-path="url(#clip-path)">
        <path id="path227" d="M-1.289-3.211a2.459,2.459,0,0,0,1.045-.1,3.064,3.064,0,0,0,1.386-.97c.627-.7,1.48-1.647,1.228-2.638-.284-1.117-1.84-1.758-3.1-1.6A2.988,2.988,0,0,0-3.445-5.953,2.758,2.758,0,0,0-1.289-3.211" transform="translate(266.984 287.511)" fill="#a47343"/>
      </g>
      <g id="g229" transform="translate(-321.004 -304.817)" clip-path="url(#clip-path)">
        <path id="path231" d="M-7.806-2.42a18.715,18.715,0,0,1-3.876,4.3c-2.471,1.987-3.793,2-4.925,3.812-1.084,1.732-.124,2.284-1.113,4.867-1.261,3.294-3.631,4.509-3.085,5.621.165.337.445.353,2.312.976,2.868.958,2.894,1.148,3.587,1.256s2.123.144,5.489-2.285c2.92-2.107,7.617-5.5,6.873-8.208C-2.907,6.592-4.2,6.761-5.783,4.108A13.947,13.947,0,0,1-7.127,1.041C-7.657-.74-7.317-.968-7.806-2.42c-.733-2.174-1.9-2.849-1.536-3.5s1.823-.609,2.807-.283a4.627,4.627,0,0,1,2.268,1.83A12.479,12.479,0,0,1-2.03,2.161a16.869,16.869,0,0,1-.515,5.754" transform="translate(265.388 233.215)" fill="none" stroke="#a47343" stroke-miterlimit="10" stroke-width="0.988"/>
      </g>
      <g id="g233" transform="translate(-321.004 -304.817)" clip-path="url(#clip-path)">
        <path id="path235" d="M0-7.27a60.748,60.748,0,0,0,9.14-6.378,60.536,60.536,0,0,0,5.882-5.69" transform="translate(244.583 256.66)" fill="none" stroke="#a47343" stroke-miterlimit="10" stroke-width="0.988"/>
      </g>
      <g id="g237" transform="translate(-321.004 -304.817)" clip-path="url(#clip-path)">
        <path id="path239" d="M0,0A22.743,22.743,0,0,0,2.811.988a22.906,22.906,0,0,0,5.374.829" transform="translate(249.408 246.334)" fill="none" stroke="#a47343" stroke-miterlimit="10" stroke-width="0.988"/>
      </g>
      <g id="g241" transform="translate(-321.004 -304.817)" clip-path="url(#clip-path)">
        <path id="path243" d="M0-3.5a2.072,2.072,0,0,0,.873-.655,2.162,2.162,0,0,0,.4-1.11c.1-.919.283-2.306.481-4.053" transform="translate(250.253 291.022)" fill="none" stroke="#a47343" stroke-miterlimit="10" stroke-width="0.988"/>
      </g>
      <g id="g245" transform="translate(-321.004 -304.817)" clip-path="url(#clip-path)">
        <path id="path247" d="M0-3.636A5.136,5.136,0,0,0,1.28-5.762a5.379,5.379,0,0,0-.388-3.91" transform="translate(264.978 270.24)" fill="none" stroke="#a47343" stroke-miterlimit="10" stroke-width="0.988"/>
      </g>
      <g id="g249" transform="translate(-321.004 -304.817)" clip-path="url(#clip-path)">
        <path id="path251" d="M0,0A5.045,5.045,0,0,1,3.578,1.384,10.6,10.6,0,0,0,4.942,2.9a6.123,6.123,0,0,0,1.893,1.04c2.317.867,4.838,4.582,6.095,7.52a18.226,18.226,0,0,1,1.389,5.562" transform="translate(236.115 200.581)" fill="none" stroke="#a47343" stroke-miterlimit="10" stroke-width="0.988"/>
      </g>
      <g id="g253" transform="translate(-321.004 -304.817)" clip-path="url(#clip-path)">
        <path id="path255" d="M0-5.875A58.945,58.945,0,0,0,1.4-11.93c.226-1.284.4-2.519.531-3.7" transform="translate(253.723 248.888)" fill="none" stroke="#a47343" stroke-miterlimit="10" stroke-width="0.988"/>
      </g>
      <g id="g257" transform="translate(-321.004 -304.817)" clip-path="url(#clip-path)">
        <path id="path259" d="M0,0A11.408,11.408,0,0,1,3.776,2.357,12.1,12.1,0,0,1,7.363,9.948" transform="translate(256.046 227.29)" fill="none" stroke="#a47343" stroke-miterlimit="10" stroke-width="0.988"/>
      </g>
    </g>
    <g id="subtitle">
      <text id="rusztikus" transform="translate(104 447)" fill="#a97c50" font-size="36" font-family="Helena Johnsmith" letter-spacing="0.102em"><tspan x="0" y="0">rusztikus</tspan></text>
      <text id="dekormuhely" transform="translate(210 447)" fill="#a97c50" font-size="36" font-family="Helena Johnsmith" letter-spacing="0.1em"><tspan x="0" y="0">dekormuhely</tspan></text>
      <g id="ekezet">
        <g id="g34" transform="translate(-21.002 141.125)" clip-path="url(#clip-path-54)">
          <path id="path36" d="M.644.053-.966,1.9a.521.521,0,0,0,.2.31.517.517,0,0,0,.358.1L1.5.818A.583.583,0,0,0,.644.053" transform="translate(308.365 293.859)" fill="#a47343"/>
        </g>
        <g id="g38" transform="translate(-21.002 141.125)" clip-path="url(#clip-path-54)">
          <path id="path40" d="M.644.053-.966,1.9a.521.521,0,0,0,.2.31.517.517,0,0,0,.358.1L1.5.818A.583.583,0,0,0,.644.053" transform="translate(310.613 293.859)" fill="#a47343"/>
        </g>
      </g>
    </g>
  </g>
</svg>
