<?xml version="1.0" encoding="UTF-8"?>
<svg id="Walnut_Leaf" data-name="Walnut Leaf" xmlns="http://www.w3.org/2000/svg" viewBox="0 0 90.13 163.99">
  <defs>
    <style>
      .cls-1 {
        fill: none;
        stroke: #a97c50;
        stroke-miterlimit: 10;
      }
    </style>
  </defs>
  <path class="cls-1" d="m42.42,75.66c.14.37.27.91.1,1.46-.36,1.21-1.86,1.69-3.1,2.07-1.99.61-3.7.56-4.63.49-1.25-.09-2.51-.3-5.89-1.37-3.85-1.22-5.78-1.82-6.73-2.39-2.18-1.3-3.21-2.62-6.28-3.88-.84-.34-.83-.27-1.47-.56-1.29-.59-2.97-1.64-5.02-4.12-.79-.96-2.47-3.13-3.88-6.39-1.61-3.7-1.15-4.82-2.97-7.24-.8-1.06-1.96-2.27-1.7-2.6.18-.23.78.28,1.84.29,1.21.01,1.59-.63,3.43-1.35,1.31-.51,1.35-.28,2.79-.78,1.75-.62,2.12-1.12,3.25-1.6,1.72-.74,3.34-.55,6.58-.18,2.88.33,4.54.99,5.13,1.25.65.28,1.18.56,1.54.77l.67,1.02,1.37.8,3.94,1.79,3.57,2.39,2.4,3.29.56,1.09,4.05,6.1.77,8.74-.35.92Z"/>
  <path class="cls-1" d="m.85,51.11c3.61,1.36,6.53,2.66,8.59,3.63,3.95,1.86,7.06,3.63,13.28,7.17,3.04,1.73,4.59,2.62,6.32,3.75,2.8,1.82,4.94,3.45,7.71,5.55,2.26,1.72,4.17,3.23,5.66,4.45"/>
  <path class="cls-1" d="m11.51,48c1.34.73,2.18,1.59,2.65,2.16.77.92,1.21,1.84,1.52,2.49.37.77.58,1.37.66,1.6.38,1.07,1.05,2.74,2.33,5.37"/>
  <path class="cls-1" d="m13.2,56.61c-1.2.3-2.14.63-2.77.87-1.55.6-2.1,1-3.18,1.16-1.1.17-2.04-.02-2.66-.2"/>
  <path class="cls-1" d="m26.1,50.54c.48.92,1.11,2.36,1.34,4.21.21,1.69-.06,2.65-.11,4.4-.04,1.37.05,3.38.7,5.87"/>
  <path class="cls-1" d="m24.09,62.7c-.52.2-1.3.53-2.16,1.1-1.76,1.15-1.98,2.04-3.7,3.42-1.02.82-2.06,1.64-3.55,1.94-1.86.37-3.46-.26-4.25-.65"/>
  <path class="cls-1" d="m29.27,52.15c.69,1.35,1.21,2.48,1.56,3.3.48,1.12.54,1.37.58,1.59.17.95-.08,1.43-.66,3.65-.3,1.15-.5,2.05-.76,3.21-.2.88-.34,1.61-.44,2.1"/>
  <path class="cls-1" d="m33.08,68.45c-1.52,1.26-2.88,2.14-3.9,2.73-1.52.89-1.33.58-4.16,2.09-.68.36-1.22.67-2.06.92-1.09.34-2.05.41-2.69.41"/>
  <path class="cls-1" d="m38.78,72.77c-.66.22-1.64.6-2.71,1.25-1.33.81-1.88,1.48-2.85,2.22-.89.67-2.27,1.51-4.32,2.07"/>
  <path class="cls-1" d="m42.5,101.98c-.28,1.68-1.35,2.7-1.83,3.15-.43.41-1.08,1.02-2.1,1.34-.72.22-1.96.07-4.4-.25-.85-.11-1.29-.17-1.63-.26-1.22-.32-1.55-.71-2.44-.72-.71,0-.64.24-1.49.32-1.04.1-1.47-.24-2.82-.44-.93-.14-1.48-.1-2.09-.11-1.86-.03-4.21-.57-5.91-1.26-2.81-1.15-3-2.36-7.76-5-.5-.28-.92-.5-1.18-.63h-.78s-2.09-1.9-2.09-1.9l-1.4-1.33-.81-.13c-.36-.73-.73-.94-1.01-.99-.39-.08-.6.16-1.24.14-.08,0-.92-.03-1-.32-.08-.28.57-.63,1.17-1.09,1.7-1.3,1.26-2.13,2.73-3.24,1.15-.86,1.76-.61,2.47-1.56.46-.61.43-1.02.7-1.61.53-1.15,1.66-1.81,3.45-2.51,4.82-1.88,8.28-2.14,8.28-2.14,1.21-.09,8.8-.58,14.55,2.85,1.74,1.04,3.1,2.31,3.61,2.79,1.86,1.75,2.36,2.81,2.55,3.23.4.93.52,1.73.59,2.26.32,2.3-.38,3.15.33,4.61.34.7.52.53.95,1.37.25.48.9,1.78.63,3.43Z"/>
  <path class="cls-1" d="m42.86,101.82c-.97-.48-2.52-1.27-4.42-2.25-6.04-3.13-6.69-3.71-9.5-4.89-4.11-1.71-6.96-2.25-7.84-2.4-1.99-.35-3.58-.43-4.42-.47-3.25-.16-5.72.12-7.27.3-2.23.26-5.13.76-8.45,1.75"/>
  <path class="cls-1" d="m82.28,107.52c-.68-.84,2.76-5.61,5.26-6.47.12-.04.51-.17.83-.52.75-.84.67-2.52-.15-3.37-.38-.4-.83-.52-1.11-.6-2.24-.68-2.07-1.87-5.63-3.77-4.27-2.28-3.39-2.21-5.09-2.91-1.36-.56-1.63-.49-10.28-1.73-2.18-.31-3.28-.48-4.85-.21-1.87.32-3.22,1.05-4.49,1.74-1.09.59-2.87,1.68-4.66,3.49-1.33,1.34-1.99,2.01-2.39,3.18-.42,1.23-.05,1.57-.56,3.58-.39,1.55-.7,1.7-.77,2.77-.09,1.37.32,2.43.53,2.97.31.78.89,2.25,2.28,3.14,1.57.99,2.2,0,4.28,1.01,1.39.67,1.96,1.53,3.11,1.38.59-.08.78-.34,1.31-.57,1.46-.62,2.76.2,4.55.72,1.63.47,3.52.36,7.31.15,2.78-.15,3.49-.44,3.87-.61.91-.42,1.41-.89,2.64-1.25.48-.14,1.06-.22,2.27-.31,2.7-.19,3.28.31,4.79-.19.37-.12,1.79-.59,1.88-1.45,0-.04.04-.38-.16-.63-.81-1.01-4.2,1.21-4.77.51Z"/>
  <path class="cls-1" d="m83.84,103.35c-.16-.39-.46-.96-1.03-1.37-1.04-.76-1.93-.05-3.88-.55-2.37-.61-3.23-1.45-6.58-1.43-2.42.01-2.84.46-7.43.61-2.25.07-2.28-.03-3.68.09-1.54.13-6.64,1.25-7.33,1.4-1.29.28-3.16.57-5.53.57"/>
  <path class="cls-1" d="m16.66,81.87c1.12.82,2.4,1.92,3.65,3.39,2.47,2.9,3.65,5.88,4.24,7.84"/>
  <path class="cls-1" d="m16.67,91.8c-.42.91-1.35,2.6-3.19,4.05-2.17,1.7-4.4,2.13-5.41,2.26"/>
  <path class="cls-1" d="m26.5,93.74c-1.11,1.79-2.1,3.32-2.91,4.54-1.46,2.19-2.1,3.02-3.1,3.84-1.03.84-2.03,1.34-2.7,1.63"/>
  <path class="cls-1" d="m40.96,100.86c-1.6.84-3.33,1.69-5.17,2.51-1.69.75-3.32,1.42-4.89,2.01"/>
  <path class="cls-1" d="m36.54,86.24c.73,1.11,1.46,2.68,1.25,4.44-.12.96-.45,1.47-.95,2.85-.39,1.1-.85,2.64-1.11,4.6"/>
  <path class="cls-1" d="m57.64,101.26c.69.61,1.63,1.58,2.31,3,.65,1.34.61,2.13,1,3.16.46,1.18,1.51,2.7,4.19,4.04"/>
  <path class="cls-1" d="m69.25,88.58c-1.43,1.13-2.52,2.17-3.3,2.97-1.2,1.25-1.61,1.87-1.87,2.37-.52.96-.63,1.62-.9,2.52-.31,1.05-.87,2.52-1.95,4.25"/>
  <path class="cls-1" d="m76.38,89.86c-.83.27-2.13.82-3.31,1.98-.48.47-1.05,1.15-1.98,3.02-.63,1.27-1.43,3.1-2.11,5.45"/>
  <path class="cls-1" d="m72.34,100c1.12,1.58,2.44,3.27,3.99,5.02,1.44,1.62,2.87,3.04,4.21,4.27"/>
  <path class="cls-1" d="m87.1,96.55c-.66-.2-2.76-.74-5.14.19-2.98,1.17-4.15,3.78-4.36,4.29"/>
  <path class="cls-1" d="m39.07,119.55c-.16-.47-.33-.5-.51-.97-.36-.94,0-1.66.02-2.27.06-2.01-3.65-3.66-3.96-3.79-2.41-1.04-4.6-.72-6.2-.48-1.99.3-4.41.67-6.23,2.52-.89.91-.42.94-2.91,4.71-.9,1.36-1.21,1.74-1.64,2.68-.76,1.67-.56,2.19-1.25,3.02-1.19,1.43-3.14,1.53-3.1,1.68.03.12,1.31-.07,3.78-.35,1.09-.12,2-.21,3.02.2.43.17.76.38.97.54l.98-.57c1.17.11,2.09.26,2.72.37,1.42.26,2.12.5,2.65.08.25-.2.32-.43.86-.86.21-.17.45-.37.74-.49.48-.21.84-.12,1.78,0,1.4.18,2.09.16,2.36.15,1.05-.04,1.32-.23,1.44-.33.37-.31.32-.63.72-1.05.36-.38.71-.46,1.16-.65.26-.11,1.81-.77,2.41-1.9.36-.67.43-1.54.19-2.25Z"/>
  <path class="cls-1" d="m39.07,119.55c-.58.1-1.44.22-2.49.27-2.21.12-2.86-.17-4.42-.14-1.3.03-2.67.44-5.42,1.26-2.16.64-3.24.97-4.35,1.54-1.73.88-2.15,1.48-4.05,2.47-1.36.71-2.55,1.12-3.33,1.36"/>
  <path class="cls-1" d="m49.05,119.58c1.2-1.77,4.02-1.82,5.61-1.85,2.09-.04,3.3.49,3.57.61.9.41,1.54.93,1.94,1.31l1.13.04,2.37,2.35c1.67,3.11,2.28,5.73,2.54,7.43.26,1.71.12,2.32.02,2.67-.74,2.46-3.21,2.42-3.86,4.66-.26.9.18.76.41,4.38.15,2.26.03,3.21.04,3.21,0,0,.28-1.17-.32-1.86-.41-.48-.88-.23-2.1-.69-.88-.33-1.47-.78-1.87-1.08-.46-.35-.75-.64-1.63-1.62-2.32-2.57-2.47-2.89-2.57-3.17-.45-1.23.04-1.48-.47-2.33-.39-.65-.86-.78-3.03-1.93-1.34-.7-2-1.05-2.49-1.39-1.57-1.08-2.45-1.69-2.65-2.63-.35-1.66,1.84-2.34,2.77-5.75.39-1.43.1-1.65.58-2.36Z"/>
  <path class="cls-1" d="m62.51,142.52c-.33-1.71-.9-3.95-1.96-6.43-.51-1.2-1.37-3.18-2.97-5.42-.97-1.35-1.61-1.96-4.91-5.34-1.81-1.85-3.24-3.32-4.03-4.15"/>
  <path class="cls-1" d="m60.18,119.64c-1.07.74-1.99,1.24-2.63,1.56-.58.29-1.13.53-1.94,1.01-.64.38-.82.56-1.39.94-.54.36-1.34.84-2.39,1.31"/>
  <path class="cls-1" d="m35.54,119.85c-.22.73-.73,2.04-1.92,3.28-1.56,1.63-3.37,2.15-4.12,2.32"/>
  <g>
    <path class="cls-1" d="m51.53,63.58c.48,0,1.01-.45,2.09-1.35.69-.58,1.23-1.03,1.77-1.8.43-.6.42-.77.79-1.39.75-1.24,1.3-1.43,2.3-2.58.86-.99.53-.95,1.86-2.84,1.43-2.04,1.67-1.89,2.13-2.96.34-.8.29-1.09.93-2.71.18-.45.35-.89.62-1.5.64-1.41.82-1.48.94-2.11.11-.59-.04-.57.01-1.92.03-.71.07-.92.13-1.65.07-1,.06-1.7.05-2.53-.04-4.55.13-4.11,0-5.05-.29-1.98-.76-1.86-1.43-5.07-.38-1.81-.28-1.75-.49-2.18-.54-1.15-1.53-1.77-1.93-2-.48-.29-1.27-.51-2.83-.95-1.1-.31-1.77-.45-2.52-1.03-.36-.28-.62-.56-.78-.75-.41-.25-1.1-.75-1.66-1.59-2.14-3.19.57-7.03-1.62-9.82-.94-1.19-2.12-1.71-2.12-1.71-1.08-.47-1.42-.14-2.43-.66-.23-.12-1.52-.78-2.13-2.15-.35-.78-.17-1.11-.64-1.63-.44-.48-.79-.75-1.29-1.07-1.86-1.2-2.48-2.24-2.7-2.08-.3.21,1.08,1.73,1.44,4.41,0,0,.31,2.54-.72,4.63-.61,1.24-1.1.86-2.25,2.52-1.08,1.56-1.49,3.08-1.67,3.77-.38,1.45-.11,1.47-.48,3.19-.31,1.48-.71,2.57-1.39,4.15-1.1,2.59-1.11,2.31-1.57,3.49-.55,1.45-1.42,3.76-1.33,6.62.02.67.21,1.66.58,3.61.25,1.33.64,3.35,1.12,5.9l.68.48.66,2.56,2.99,6.29c.88,1.68,1.88,2.54,2.65,3.02.89.56,1.61.69,2.29,1.59.5.67.44,1.04,1.03,1.73.46.55.81.68,1.73,1.28,1.48.96,2.67,1.95,3.07,2.29,1.36,1.14,1.55,1.53,2.14,1.53Z"/>
    <path class="cls-1" d="m33.18,28.84c.25.9.67,2.17,1.42,3.59.46.87.92,1.75,1.71,2.59,1.24,1.35,2.62,1.88,4.67,2.64,2.52.94,3.25.75,5.53,1.74,1.23.54,2.19,1.1,2.81,1.5"/>
    <path class="cls-1" d="m64.57,31.18c.04.82-.05,2.01-.74,3.1-.52.83-1.12,1.16-2.91,2.26-2.79,1.71-4.18,2.56-4.76,3.07-1.33,1.19-1.6,1.88-3.01,2.92-.15.11-.97.72-2.05,1.47-.38.27-.7.49-.91.63"/>
    <path class="cls-1" d="m53.49,19.63c-.61,1.2-1.53,2.82-2.83,4.64-1.11,1.55-2.38,3.06-2.29,3.13.07.06.85-1.1,2.43-2.04,1.24-.74,1.57-.5,2.72-1.16.79-.45,1.89-1.21,2.9-2.81"/>
    <path class="cls-1" d="m36.87,19.04c.91,1.32,1.95,2.82,3.12,4.48.61.86,1.08,1.53,1.81,2.37,1.04,1.2,1.93,1.97,2.25,2.25,1.12,1,2.76,2.71,4.95,5.81"/>
    <path class="cls-1" d="m35.83,22.36c.4.65.93,1.38,1.66,2.09,2.1,2.06,4.54,2.75,5.82,3.01"/>
    <path class="cls-1" d="m39.02,12.08c.06.72.25,1.85,1,2.89,1.05,1.44,2.38,1.58,4.35,2.97.75.53,1.84,1.41,2.96,2.82"/>
    <path class="cls-1" d="m64.95,43.15c-.58.72-1.51,1.75-2.82,2.81-.99.8-2.73,2.2-5.31,3.08-2.04.7-3.15.58-4.46,1.75-.7.62-1.11,1.3-1.36,1.79"/>
    <path class="cls-1" d="m39,52.8c.41.24,1.02.57,1.8.89,2,.82,3.55.93,4.63,1.1,1.4.22,3.37.74,5.73,2.12"/>
    <path class="cls-1" d="m49.74,8.1c-.04.83-.09,2.07-.14,3.57-.09,2.69-.08,3.52-.12,4.28-.09,1.67-.46,4.04-1.73,7"/>
    <path class="cls-1" d="m42.73,1.67c6.34,20.69,7.5,41.21,8.63,63.26"/>
  </g>
  <path class="cls-1" d="m51.64,63.56c-2.34,16.5-4.88,30.9-7.18,42.75-4.59,23.58-7.63,33.75-14.64,44.38-3.85,5.84-7.8,10.15-10.62,12.94"/>
  <path class="cls-1" d="m75.26,49.54c-2.28,3.44-4.61,5.63-6.27,6.97-4,3.22-6.13,3.25-7.96,6.19-1.75,2.81-.2,3.71-1.8,7.9-2.04,5.35-5.87,7.32-4.99,9.12.27.55.72.57,3.74,1.58,4.64,1.55,4.68,1.86,5.8,2.04,1.12.18,3.43.23,8.88-3.71,4.72-3.42,12.32-8.92,11.11-13.32-.59-2.15-2.67-1.87-5.24-6.18-1.34-2.24-2-4.38-2.17-4.98-.86-2.89-.31-3.26-1.1-5.61-1.19-3.53-3.07-4.62-2.48-5.69.57-1.05,2.95-.99,4.54-.46,1.19.4,2.35,1.19,3.67,2.97,3.01,4.05,3.45,8.59,3.62,10.61.18,2.13.2,5.41-.83,9.34"/>
  <path class="cls-1" d="m54.24,79.71c4.45-2.54,9.54-5.91,14.78-10.35,3.72-3.16,6.88-6.3,9.51-9.23"/>
  <path class="cls-1" d="m62.04,74.75c1.34.57,2.86,1.13,4.55,1.6,3.29.92,6.27,1.26,8.69,1.35"/>
  <path class="cls-1" d="m63.41,141.58c.37-.15.96-.46,1.41-1.06.52-.69.6-1.43.64-1.8.17-1.49.46-3.74.78-6.58"/>
  <path class="cls-1" d="m87.21,107.64c.59-.59,1.56-1.74,2.07-3.45.93-3.08-.3-5.7-.63-6.35"/>
  <path class="cls-1" d="m40.54.52c3.25.21,4.89,1.28,5.79,2.25.67.72,1.04,1.51,2.21,2.46,1.34,1.1,2.63,1.52,3.06,1.69,3.75,1.41,7.82,7.43,9.85,12.2.85,2.01,1.9,5.07,2.25,9.02"/>
  <path class="cls-1" d="m69.02,69.36c.85-2.98,1.64-6.26,2.26-9.83.37-2.08.65-4.09.86-6"/>
  <path class="cls-1" d="m72.77,43.85c1.64.63,3.93,1.76,6.11,3.82,4.83,4.58,5.62,10.45,5.8,12.32"/>
</svg>