<?xml version="1.0" encoding="utf-8"?>
<!-- Generator: Adobe Illustrator 27.3.1, SVG Export Plug-In . SVG Version: 6.00 Build 0)  -->
<svg version="1.1" xmlns="http://www.w3.org/2000/svg" xmlns:xlink="http://www.w3.org/1999/xlink" x="0px" y="0px"
	 viewBox="0 0 31.6 78" style="enable-background:new 0 0 31.6 78;" xml:space="preserve">
<style type="text/css">
	.st0{display:none;}
	.st1{display:inline;fill:none;stroke:#A87C4F;stroke-miterlimit:10;}
	.st2{display:inline;fill:none;stroke:#A87C4F;stroke-width:2;stroke-miterlimit:10;}
	.st3{fill:none;stroke:#6A362D;stroke-miterlimit:10;}
	.st4{fill:none;stroke:#6A362D;stroke-width:2;stroke-miterlimit:10;}
	.st5{display:inline;fill:none;stroke:#9D5143;stroke-miterlimit:10;}
	.st6{display:inline;fill:none;stroke:#9D5143;stroke-width:2;stroke-miterlimit:10;}
	.st7{display:inline;fill:none;stroke:#F3E4E2;stroke-miterlimit:10;}
	.st8{display:inline;fill:none;stroke:#F3E4E2;stroke-width:2;stroke-miterlimit:10;}
	.st9{display:inline;fill:none;stroke:#6A362D;stroke-miterlimit:10;}
</style>
<g id="diólevél_Original" class="st0">
	<path class="st1" d="M23.7,50.7c-0.1,0.4-0.4,1-0.9,1.4c-1.1,0.8-2.8,0.2-4.1-0.3c-2.2-0.8-3.6-2.1-4.4-2.8c-1-0.9-2-2-4.2-5.3
		c-2.5-3.7-3.8-5.6-4.2-6.7c-1-2.6-1-4.5-2.8-7.7c-0.5-0.9-0.5-0.8-0.9-1.5c-0.7-1.4-1.5-3.5-1.5-7.1c0-1.4,0-4.4,1-8.3
		C2.7,8,3.8,7.3,3.9,4c0-1.5-0.2-3.3,0.3-3.5C4.5,0.4,4.7,1.3,5.6,2c1,0.8,1.8,0.5,3.9,1.2c1.5,0.5,1.4,0.7,3,1.2
		c2,0.7,2.6,0.5,4,0.8c2,0.5,3.3,1.8,5.9,4.4c2.3,2.3,3.3,4,3.6,4.6c0.4,0.7,0.6,1.3,0.8,1.7l-0.1,1.4l0.7,1.6l2.2,4.3l1.5,4.6
		l-0.2,4.5l-0.3,1.3L30,41.9l-5.4,8.2L23.7,50.7z"/>
	<path class="st1" d="M4.2,0.5c2.2,3.7,3.9,6.8,5,9.1c2.2,4.4,3.7,8.1,6.7,15.5c1.5,3.6,2.2,5.5,3,7.6c1.2,3.5,2,6.4,2.9,10.2
		c0.8,3.1,1.4,5.7,1.9,7.8"/>
	<path class="st1" d="M15.7,5.1c0.7,1.6,0.8,2.9,0.8,3.7c0,1.3-0.2,2.4-0.4,3.2C16,13,15.7,13.7,15.6,14c-0.4,1.2-1,3.1-1.7,6.3"/>
	<path class="st1" d="M12.9,18.8"/>
	<path class="st1" d="M11.2,13.8c-1.3-0.6-2.3-0.9-3-1.1c-1.8-0.5-2.5-0.6-3.6-1.2c-1.1-0.6-1.8-1.4-2.2-2"/>
	<path class="st1" d="M26.7,17.4c-0.2,1.1-0.7,2.8-1.7,4.6c-1,1.6-1.9,2.3-3.1,3.8c-1,1.2-2.3,3-3.4,5.6"/>
	<path class="st1" d="M16.6,26.7c-0.6-0.2-1.5-0.4-2.6-0.5c-2.3-0.2-3.1,0.4-5.6,0.4c-1.5,0-2.9,0-4.5-0.8c-1.9-1-2.9-2.6-3.3-3.5"
		/>
	<path class="st1" d="M28.4,21c-0.3,1.7-0.7,3-0.9,4c-0.3,1.3-0.5,1.6-0.6,1.8c-0.5,1-1.1,1.2-3.1,2.7c-1.1,0.8-1.9,1.5-2.9,2.3
		c-0.8,0.6-1.4,1.2-1.8,1.5"/>
	<path class="st1" d="M20.5,37.9c-2.2,0.1-4-0.1-5.3-0.3c-1.9-0.3-1.6-0.4-5.1-1c-0.8-0.2-1.5-0.3-2.4-0.6c-1.2-0.5-2.1-1.1-2.6-1.5
		"/>
	<path class="st1" d="M22.5,45.7c-0.7-0.3-1.8-0.6-3.2-0.8c-1.7-0.2-2.7,0-4,0c-1.2,0-3-0.2-5.2-1.2"/>
	<path class="st2" d="M23.7,49.7c0.3,1.9,0.6,4,0.8,6.1c0.7,8.5-0.3,16-1.8,22"/>
</g>
<g id="diólevél_6A362D_Garnet">
	<path class="st3" d="M23.7,50.7c-0.1,0.4-0.4,1-0.9,1.4c-1.1,0.8-2.8,0.2-4.1-0.3c-2.2-0.8-3.6-2.1-4.4-2.8c-1-0.9-2-2-4.2-5.3
		c-2.5-3.7-3.8-5.6-4.2-6.7c-1-2.6-1-4.5-2.8-7.7c-0.5-0.9-0.5-0.8-0.9-1.5c-0.7-1.4-1.5-3.5-1.5-7.1c0-1.4,0-4.4,1-8.3
		C2.7,8,3.8,7.3,3.9,4c0-1.5-0.2-3.3,0.3-3.5C4.5,0.4,4.7,1.3,5.6,2c1,0.8,1.8,0.5,3.9,1.2c1.5,0.5,1.4,0.7,3,1.2
		c2,0.7,2.6,0.5,4,0.8c2,0.5,3.3,1.8,5.9,4.4c2.3,2.3,3.3,4,3.6,4.6c0.4,0.7,0.6,1.3,0.8,1.7l-0.1,1.4l0.7,1.6l2.2,4.3l1.5,4.6
		l-0.2,4.5l-0.3,1.3L30,41.9l-5.4,8.2L23.7,50.7z"/>
	<path class="st3" d="M4.2,0.5c2.2,3.7,3.9,6.8,5,9.1c2.2,4.4,3.7,8.1,6.7,15.5c1.5,3.6,2.2,5.5,3,7.6c1.2,3.5,2,6.4,2.9,10.2
		c0.8,3.1,1.4,5.7,1.9,7.8"/>
	<path class="st3" d="M15.7,5.1c0.7,1.6,0.8,2.9,0.8,3.7c0,1.3-0.2,2.4-0.4,3.2C16,13,15.7,13.7,15.6,14c-0.4,1.2-1,3.1-1.7,6.3"/>
	<path class="st3" d="M12.9,18.8"/>
	<path class="st3" d="M11.2,13.8c-1.3-0.6-2.3-0.9-3-1.1c-1.8-0.5-2.5-0.6-3.6-1.2c-1.1-0.6-1.8-1.4-2.2-2"/>
	<path class="st3" d="M26.7,17.4c-0.2,1.1-0.7,2.8-1.7,4.6c-1,1.6-1.9,2.3-3.1,3.8c-1,1.2-2.3,3-3.4,5.6"/>
	<path class="st3" d="M16.6,26.7c-0.6-0.2-1.5-0.4-2.6-0.5c-2.3-0.2-3.1,0.4-5.6,0.4c-1.5,0-2.9,0-4.5-0.8c-1.9-1-2.9-2.6-3.3-3.5"
		/>
	<path class="st3" d="M28.4,21c-0.3,1.7-0.7,3-0.9,4c-0.3,1.3-0.5,1.6-0.6,1.8c-0.5,1-1.1,1.2-3.1,2.7c-1.1,0.8-1.9,1.5-2.9,2.3
		c-0.8,0.6-1.4,1.2-1.8,1.5"/>
	<path class="st3" d="M20.5,37.9c-2.2,0.1-4-0.1-5.3-0.3c-1.9-0.3-1.6-0.4-5.1-1c-0.8-0.2-1.5-0.3-2.4-0.6c-1.2-0.5-2.1-1.1-2.6-1.5
		"/>
	<path class="st3" d="M22.5,45.7c-0.7-0.3-1.8-0.6-3.2-0.8c-1.7-0.2-2.7,0-4,0c-1.2,0-3-0.2-5.2-1.2"/>
	<path class="st4" d="M23.7,49.7c0.3,1.9,0.6,4,0.8,6.1c0.7,8.5-0.3,16-1.8,22"/>
</g>
<g id="diólevél_9D5143_Chesnut" class="st0">
	<path class="st5" d="M23.7,50.7c-0.1,0.4-0.4,1-0.9,1.4c-1.1,0.8-2.8,0.2-4.1-0.3c-2.2-0.8-3.6-2.1-4.4-2.8c-1-0.9-2-2-4.2-5.3
		c-2.5-3.7-3.8-5.6-4.2-6.7c-1-2.6-1-4.5-2.8-7.7c-0.5-0.9-0.5-0.8-0.9-1.5c-0.7-1.4-1.5-3.5-1.5-7.1c0-1.4,0-4.4,1-8.3
		C2.7,8,3.8,7.3,3.9,4c0-1.5-0.2-3.3,0.3-3.5C4.5,0.4,4.7,1.3,5.6,2c1,0.8,1.8,0.5,3.9,1.2c1.5,0.5,1.4,0.7,3,1.2
		c2,0.7,2.6,0.5,4,0.8c2,0.5,3.3,1.8,5.9,4.4c2.3,2.3,3.3,4,3.6,4.6c0.4,0.7,0.6,1.3,0.8,1.7l-0.1,1.4l0.7,1.6l2.2,4.3l1.5,4.6
		l-0.2,4.5l-0.3,1.3L30,41.9l-5.4,8.2L23.7,50.7z"/>
	<path class="st5" d="M4.2,0.5c2.2,3.7,3.9,6.8,5,9.1c2.2,4.4,3.7,8.1,6.7,15.5c1.5,3.6,2.2,5.5,3,7.6c1.2,3.5,2,6.4,2.9,10.2
		c0.8,3.1,1.4,5.7,1.9,7.8"/>
	<path class="st5" d="M15.7,5.1c0.7,1.6,0.8,2.9,0.8,3.7c0,1.3-0.2,2.4-0.4,3.2C16,13,15.7,13.7,15.6,14c-0.4,1.2-1,3.1-1.7,6.3"/>
	<path class="st5" d="M12.9,18.8"/>
	<path class="st5" d="M11.2,13.8c-1.3-0.6-2.3-0.9-3-1.1c-1.8-0.5-2.5-0.6-3.6-1.2c-1.1-0.6-1.8-1.4-2.2-2"/>
	<path class="st5" d="M26.7,17.4c-0.2,1.1-0.7,2.8-1.7,4.6c-1,1.6-1.9,2.3-3.1,3.8c-1,1.2-2.3,3-3.4,5.6"/>
	<path class="st5" d="M16.6,26.7c-0.6-0.2-1.5-0.4-2.6-0.5c-2.3-0.2-3.1,0.4-5.6,0.4c-1.5,0-2.9,0-4.5-0.8c-1.9-1-2.9-2.6-3.3-3.5"
		/>
	<path class="st5" d="M28.4,21c-0.3,1.7-0.7,3-0.9,4c-0.3,1.3-0.5,1.6-0.6,1.8c-0.5,1-1.1,1.2-3.1,2.7c-1.1,0.8-1.9,1.5-2.9,2.3
		c-0.8,0.6-1.4,1.2-1.8,1.5"/>
	<path class="st5" d="M20.5,37.9c-2.2,0.1-4-0.1-5.3-0.3c-1.9-0.3-1.6-0.4-5.1-1c-0.8-0.2-1.5-0.3-2.4-0.6c-1.2-0.5-2.1-1.1-2.6-1.5
		"/>
	<path class="st5" d="M22.5,45.7c-0.7-0.3-1.8-0.6-3.2-0.8c-1.7-0.2-2.7,0-4,0c-1.2,0-3-0.2-5.2-1.2"/>
	<path class="st6" d="M23.7,49.7c0.3,1.9,0.6,4,0.8,6.1c0.7,8.5-0.3,16-1.8,22"/>
</g>
<g id="diólevél_F3E4E2_Lavender_Blush" class="st0">
	<path class="st7" d="M23.7,50.7c-0.1,0.4-0.4,1-0.9,1.4c-1.1,0.8-2.8,0.2-4.1-0.3c-2.2-0.8-3.6-2.1-4.4-2.8c-1-0.9-2-2-4.2-5.3
		c-2.5-3.7-3.8-5.6-4.2-6.7c-1-2.6-1-4.5-2.8-7.7c-0.5-0.9-0.5-0.8-0.9-1.5c-0.7-1.4-1.5-3.5-1.5-7.1c0-1.4,0-4.4,1-8.3
		C2.7,8,3.8,7.3,3.9,4c0-1.5-0.2-3.3,0.3-3.5C4.5,0.4,4.7,1.3,5.6,2c1,0.8,1.8,0.5,3.9,1.2c1.5,0.5,1.4,0.7,3,1.2
		c2,0.7,2.6,0.5,4,0.8c2,0.5,3.3,1.8,5.9,4.4c2.3,2.3,3.3,4,3.6,4.6c0.4,0.7,0.6,1.3,0.8,1.7l-0.1,1.4l0.7,1.6l2.2,4.3l1.5,4.6
		l-0.2,4.5l-0.3,1.3L30,41.9l-5.4,8.2L23.7,50.7z"/>
	<path class="st7" d="M4.2,0.5c2.2,3.7,3.9,6.8,5,9.1c2.2,4.4,3.7,8.1,6.7,15.5c1.5,3.6,2.2,5.5,3,7.6c1.2,3.5,2,6.4,2.9,10.2
		c0.8,3.1,1.4,5.7,1.9,7.8"/>
	<path class="st7" d="M15.7,5.1c0.7,1.6,0.8,2.9,0.8,3.7c0,1.3-0.2,2.4-0.4,3.2C16,13,15.7,13.7,15.6,14c-0.4,1.2-1,3.1-1.7,6.3"/>
	<path class="st7" d="M12.9,18.8"/>
	<path class="st7" d="M11.2,13.8c-1.3-0.6-2.3-0.9-3-1.1c-1.8-0.5-2.5-0.6-3.6-1.2c-1.1-0.6-1.8-1.4-2.2-2"/>
	<path class="st7" d="M26.7,17.4c-0.2,1.1-0.7,2.8-1.7,4.6c-1,1.6-1.9,2.3-3.1,3.8c-1,1.2-2.3,3-3.4,5.6"/>
	<path class="st7" d="M16.6,26.7c-0.6-0.2-1.5-0.4-2.6-0.5c-2.3-0.2-3.1,0.4-5.6,0.4c-1.5,0-2.9,0-4.5-0.8c-1.9-1-2.9-2.6-3.3-3.5"
		/>
	<path class="st7" d="M28.4,21c-0.3,1.7-0.7,3-0.9,4c-0.3,1.3-0.5,1.6-0.6,1.8c-0.5,1-1.1,1.2-3.1,2.7c-1.1,0.8-1.9,1.5-2.9,2.3
		c-0.8,0.6-1.4,1.2-1.8,1.5"/>
	<path class="st7" d="M20.5,37.9c-2.2,0.1-4-0.1-5.3-0.3c-1.9-0.3-1.6-0.4-5.1-1c-0.8-0.2-1.5-0.3-2.4-0.6c-1.2-0.5-2.1-1.1-2.6-1.5
		"/>
	<path class="st7" d="M22.5,45.7c-0.7-0.3-1.8-0.6-3.2-0.8c-1.7-0.2-2.7,0-4,0c-1.2,0-3-0.2-5.2-1.2"/>
	<path class="st8" d="M23.7,49.7c0.3,1.9,0.6,4,0.8,6.1c0.7,8.5-0.3,16-1.8,22"/>
</g>
<g id="diólevél_-_6A362D_Garnet" class="st0">
	<path class="st9" d="M23.7,50.7c-0.1,0.4-0.4,1-0.9,1.4c-1.1,0.8-2.8,0.2-4.1-0.3c-2.2-0.8-3.6-2.1-4.4-2.8c-1-0.9-2-2-4.2-5.3
		c-2.5-3.7-3.8-5.6-4.2-6.7c-1-2.6-1-4.5-2.8-7.7c-0.5-0.9-0.5-0.8-0.9-1.5c-0.7-1.4-1.5-3.5-1.5-7.1c0-1.4,0-4.4,1-8.3
		C2.7,8,3.8,7.3,3.9,4c0-1.5-0.2-3.3,0.3-3.5C4.5,0.4,4.7,1.3,5.6,2c1,0.8,1.8,0.5,3.9,1.2c1.5,0.5,1.4,0.7,3,1.2
		c2,0.7,2.6,0.5,4,0.8c2,0.5,3.3,1.8,5.9,4.4c2.3,2.3,3.3,4,3.6,4.6c0.4,0.7,0.6,1.3,0.8,1.7l-0.1,1.4l0.7,1.6l2.2,4.3l1.5,4.6
		l-0.2,4.5l-0.3,1.3L30,41.9l-5.4,8.2L23.7,50.7z"/>
	<path class="st9" d="M4.2,0.5c2.2,3.7,3.9,6.8,5,9.1c2.2,4.4,3.7,8.1,6.7,15.5c1.5,3.6,2.2,5.5,3,7.6c1.2,3.5,2,6.4,2.9,10.2
		c0.8,3.1,1.4,5.7,1.9,7.8"/>
	<path class="st9" d="M15.7,5.1c0.7,1.6,0.8,2.9,0.8,3.7c0,1.3-0.2,2.4-0.4,3.2C16,13,15.7,13.7,15.6,14c-0.4,1.2-1,3.1-1.7,6.3"/>
	<path class="st9" d="M12.9,18.8"/>
	<path class="st9" d="M11.2,13.8c-1.3-0.6-2.3-0.9-3-1.1c-1.8-0.5-2.5-0.6-3.6-1.2c-1.1-0.6-1.8-1.4-2.2-2"/>
	<path class="st9" d="M26.7,17.4c-0.2,1.1-0.7,2.8-1.7,4.6c-1,1.6-1.9,2.3-3.1,3.8c-1,1.2-2.3,3-3.4,5.6"/>
	<path class="st9" d="M16.6,26.7c-0.6-0.2-1.5-0.4-2.6-0.5c-2.3-0.2-3.1,0.4-5.6,0.4c-1.5,0-2.9,0-4.5-0.8c-1.9-1-2.9-2.6-3.3-3.5"
		/>
	<path class="st9" d="M28.4,21c-0.3,1.7-0.7,3-0.9,4c-0.3,1.3-0.5,1.6-0.6,1.8c-0.5,1-1.1,1.2-3.1,2.7c-1.1,0.8-1.9,1.5-2.9,2.3
		c-0.8,0.6-1.4,1.2-1.8,1.5"/>
	<path class="st9" d="M20.5,37.9c-2.2,0.1-4-0.1-5.3-0.3c-1.9-0.3-1.6-0.4-5.1-1c-0.8-0.2-1.5-0.3-2.4-0.6c-1.2-0.5-2.1-1.1-2.6-1.5
		"/>
	<path class="st9" d="M22.5,45.7c-0.7-0.3-1.8-0.6-3.2-0.8c-1.7-0.2-2.7,0-4,0c-1.2,0-3-0.2-5.2-1.2"/>
</g>
<g id="diólevél_-_9D5143_Chesnut" class="st0">
	<path class="st5" d="M23.7,50.7c-0.1,0.4-0.4,1-0.9,1.4c-1.1,0.8-2.8,0.2-4.1-0.3c-2.2-0.8-3.6-2.1-4.4-2.8c-1-0.9-2-2-4.2-5.3
		c-2.5-3.7-3.8-5.6-4.2-6.7c-1-2.6-1-4.5-2.8-7.7c-0.5-0.9-0.5-0.8-0.9-1.5c-0.7-1.4-1.5-3.5-1.5-7.1c0-1.4,0-4.4,1-8.3
		C2.7,8,3.8,7.3,3.9,4c0-1.5-0.2-3.3,0.3-3.5C4.5,0.4,4.7,1.3,5.6,2c1,0.8,1.8,0.5,3.9,1.2c1.5,0.5,1.4,0.7,3,1.2
		c2,0.7,2.6,0.5,4,0.8c2,0.5,3.3,1.8,5.9,4.4c2.3,2.3,3.3,4,3.6,4.6c0.4,0.7,0.6,1.3,0.8,1.7l-0.1,1.4l0.7,1.6l2.2,4.3l1.5,4.6
		l-0.2,4.5l-0.3,1.3L30,41.9l-5.4,8.2L23.7,50.7z"/>
	<path class="st5" d="M4.2,0.5c2.2,3.7,3.9,6.8,5,9.1c2.2,4.4,3.7,8.1,6.7,15.5c1.5,3.6,2.2,5.5,3,7.6c1.2,3.5,2,6.4,2.9,10.2
		c0.8,3.1,1.4,5.7,1.9,7.8"/>
	<path class="st5" d="M15.7,5.1c0.7,1.6,0.8,2.9,0.8,3.7c0,1.3-0.2,2.4-0.4,3.2C16,13,15.7,13.7,15.6,14c-0.4,1.2-1,3.1-1.7,6.3"/>
	<path class="st5" d="M12.9,18.8"/>
	<path class="st5" d="M11.2,13.8c-1.3-0.6-2.3-0.9-3-1.1c-1.8-0.5-2.5-0.6-3.6-1.2c-1.1-0.6-1.8-1.4-2.2-2"/>
	<path class="st5" d="M26.7,17.4c-0.2,1.1-0.7,2.8-1.7,4.6c-1,1.6-1.9,2.3-3.1,3.8c-1,1.2-2.3,3-3.4,5.6"/>
	<path class="st5" d="M16.6,26.7c-0.6-0.2-1.5-0.4-2.6-0.5c-2.3-0.2-3.1,0.4-5.6,0.4c-1.5,0-2.9,0-4.5-0.8c-1.9-1-2.9-2.6-3.3-3.5"
		/>
	<path class="st5" d="M28.4,21c-0.3,1.7-0.7,3-0.9,4c-0.3,1.3-0.5,1.6-0.6,1.8c-0.5,1-1.1,1.2-3.1,2.7c-1.1,0.8-1.9,1.5-2.9,2.3
		c-0.8,0.6-1.4,1.2-1.8,1.5"/>
	<path class="st5" d="M20.5,37.9c-2.2,0.1-4-0.1-5.3-0.3c-1.9-0.3-1.6-0.4-5.1-1c-0.8-0.2-1.5-0.3-2.4-0.6c-1.2-0.5-2.1-1.1-2.6-1.5
		"/>
	<path class="st5" d="M22.5,45.7c-0.7-0.3-1.8-0.6-3.2-0.8c-1.7-0.2-2.7,0-4,0c-1.2,0-3-0.2-5.2-1.2"/>
</g>
<g id="diólevél_-_F3E4E2_Lavender_Blush" class="st0">
	<path class="st7" d="M23.7,50.7c-0.1,0.4-0.4,1-0.9,1.4c-1.1,0.8-2.8,0.2-4.1-0.3c-2.2-0.8-3.6-2.1-4.4-2.8c-1-0.9-2-2-4.2-5.3
		c-2.5-3.7-3.8-5.6-4.2-6.7c-1-2.6-1-4.5-2.8-7.7c-0.5-0.9-0.5-0.8-0.9-1.5c-0.7-1.4-1.5-3.5-1.5-7.1c0-1.4,0-4.4,1-8.3
		C2.7,8,3.8,7.3,3.9,4c0-1.5-0.2-3.3,0.3-3.5C4.5,0.4,4.7,1.3,5.6,2c1,0.8,1.8,0.5,3.9,1.2c1.5,0.5,1.4,0.7,3,1.2
		c2,0.7,2.6,0.5,4,0.8c2,0.5,3.3,1.8,5.9,4.4c2.3,2.3,3.3,4,3.6,4.6c0.4,0.7,0.6,1.3,0.8,1.7l-0.1,1.4l0.7,1.6l2.2,4.3l1.5,4.6
		l-0.2,4.5l-0.3,1.3L30,41.9l-5.4,8.2L23.7,50.7z"/>
	<path class="st7" d="M4.2,0.5c2.2,3.7,3.9,6.8,5,9.1c2.2,4.4,3.7,8.1,6.7,15.5c1.5,3.6,2.2,5.5,3,7.6c1.2,3.5,2,6.4,2.9,10.2
		c0.8,3.1,1.4,5.7,1.9,7.8"/>
	<path class="st7" d="M15.7,5.1c0.7,1.6,0.8,2.9,0.8,3.7c0,1.3-0.2,2.4-0.4,3.2C16,13,15.7,13.7,15.6,14c-0.4,1.2-1,3.1-1.7,6.3"/>
	<path class="st7" d="M12.9,18.8"/>
	<path class="st7" d="M11.2,13.8c-1.3-0.6-2.3-0.9-3-1.1c-1.8-0.5-2.5-0.6-3.6-1.2c-1.1-0.6-1.8-1.4-2.2-2"/>
	<path class="st7" d="M26.7,17.4c-0.2,1.1-0.7,2.8-1.7,4.6c-1,1.6-1.9,2.3-3.1,3.8c-1,1.2-2.3,3-3.4,5.6"/>
	<path class="st7" d="M16.6,26.7c-0.6-0.2-1.5-0.4-2.6-0.5c-2.3-0.2-3.1,0.4-5.6,0.4c-1.5,0-2.9,0-4.5-0.8c-1.9-1-2.9-2.6-3.3-3.5"
		/>
	<path class="st7" d="M28.4,21c-0.3,1.7-0.7,3-0.9,4c-0.3,1.3-0.5,1.6-0.6,1.8c-0.5,1-1.1,1.2-3.1,2.7c-1.1,0.8-1.9,1.5-2.9,2.3
		c-0.8,0.6-1.4,1.2-1.8,1.5"/>
	<path class="st7" d="M20.5,37.9c-2.2,0.1-4-0.1-5.3-0.3c-1.9-0.3-1.6-0.4-5.1-1c-0.8-0.2-1.5-0.3-2.4-0.6c-1.2-0.5-2.1-1.1-2.6-1.5
		"/>
	<path class="st7" d="M22.5,45.7c-0.7-0.3-1.8-0.6-3.2-0.8c-1.7-0.2-2.7,0-4,0c-1.2,0-3-0.2-5.2-1.2"/>
</g>
</svg>
